<mxfile host="app.diagrams.net" modified="2022-11-23T13:28:29.116Z" agent="5.0 (Windows)" version="20.6.0" etag="vrDLkTLeYxxTlqUODL0h" type="github">
  <diagram id="OtkYo6CF5SqTeywUFhyi" name="Page-1">
    <mxGraphModel dx="805" dy="534" grid="1" gridSize="10" guides="1" tooltips="1" connect="1" arrows="1" fold="1" page="1" pageScale="1" pageWidth="850" pageHeight="1100" math="0" shadow="0">
      <root>
        <mxCell id="0" />
        <mxCell id="1" parent="0" />
        <mxCell id="CI0kX0nGXumtMRh8MRVl-2" value="sequence" style="rounded=0;whiteSpace=wrap;html=1;verticalAlign=top;" vertex="1" parent="1">
          <mxGeometry x="280" y="40" width="240" height="690" as="geometry" />
        </mxCell>
        <mxCell id="CI0kX0nGXumtMRh8MRVl-3" value="User" style="shape=umlActor;verticalLabelPosition=bottom;verticalAlign=top;html=1;outlineConnect=0;" vertex="1" parent="1">
          <mxGeometry x="100" y="246" width="30" height="60" as="geometry" />
        </mxCell>
        <mxCell id="CI0kX0nGXumtMRh8MRVl-4" value="shape" style="ellipse;whiteSpace=wrap;html=1;fillColor=#fff2cc;strokeColor=#d6b656;" vertex="1" parent="1">
          <mxGeometry x="355" y="265" width="90" height="60" as="geometry" />
        </mxCell>
        <mxCell id="CI0kX0nGXumtMRh8MRVl-5" value="delete" style="ellipse;whiteSpace=wrap;html=1;fillColor=#fff2cc;strokeColor=#d6b656;" vertex="1" parent="1">
          <mxGeometry x="355" y="355" width="90" height="60" as="geometry" />
        </mxCell>
        <mxCell id="CI0kX0nGXumtMRh8MRVl-6" value="" style="endArrow=open;dashed=1;html=1;dashPattern=1 3;strokeWidth=2;rounded=0;startArrow=none;startFill=0;endFill=0;" edge="1" parent="1" source="CI0kX0nGXumtMRh8MRVl-5" target="CI0kX0nGXumtMRh8MRVl-4">
          <mxGeometry width="50" height="50" relative="1" as="geometry">
            <mxPoint x="420" y="366" as="sourcePoint" />
            <mxPoint x="470" y="316" as="targetPoint" />
          </mxGeometry>
        </mxCell>
        <mxCell id="CI0kX0nGXumtMRh8MRVl-7" value="trigger" style="ellipse;whiteSpace=wrap;html=1;fillColor=#fff2cc;strokeColor=#d6b656;" vertex="1" parent="1">
          <mxGeometry x="355" y="441" width="90" height="60" as="geometry" />
        </mxCell>
        <mxCell id="CI0kX0nGXumtMRh8MRVl-8" value="run" style="ellipse;whiteSpace=wrap;html=1;fillColor=#fff2cc;strokeColor=#d6b656;" vertex="1" parent="1">
          <mxGeometry x="355" y="548" width="90" height="60" as="geometry" />
        </mxCell>
        <mxCell id="CI0kX0nGXumtMRh8MRVl-9" value="" style="endArrow=open;dashed=1;html=1;dashPattern=1 3;strokeWidth=2;rounded=0;exitX=0.5;exitY=1;exitDx=0;exitDy=0;endFill=0;" edge="1" parent="1" source="CI0kX0nGXumtMRh8MRVl-7" target="CI0kX0nGXumtMRh8MRVl-8">
          <mxGeometry width="50" height="50" relative="1" as="geometry">
            <mxPoint x="420" y="536" as="sourcePoint" />
            <mxPoint x="470" y="486" as="targetPoint" />
          </mxGeometry>
        </mxCell>
        <mxCell id="CI0kX0nGXumtMRh8MRVl-10" value="" style="endArrow=classic;html=1;rounded=0;" edge="1" parent="1" source="CI0kX0nGXumtMRh8MRVl-3" target="CI0kX0nGXumtMRh8MRVl-4">
          <mxGeometry width="50" height="50" relative="1" as="geometry">
            <mxPoint x="420" y="536" as="sourcePoint" />
            <mxPoint x="470" y="486" as="targetPoint" />
          </mxGeometry>
        </mxCell>
        <mxCell id="CI0kX0nGXumtMRh8MRVl-11" value="" style="endArrow=classic;html=1;rounded=0;entryX=0;entryY=0.5;entryDx=0;entryDy=0;" edge="1" parent="1" target="CI0kX0nGXumtMRh8MRVl-5">
          <mxGeometry width="50" height="50" relative="1" as="geometry">
            <mxPoint x="130" y="276" as="sourcePoint" />
            <mxPoint x="365" y="286" as="targetPoint" />
          </mxGeometry>
        </mxCell>
        <mxCell id="CI0kX0nGXumtMRh8MRVl-12" value="" style="endArrow=classic;html=1;rounded=0;entryX=0;entryY=0.5;entryDx=0;entryDy=0;" edge="1" parent="1" target="CI0kX0nGXumtMRh8MRVl-7">
          <mxGeometry width="50" height="50" relative="1" as="geometry">
            <mxPoint x="130" y="276" as="sourcePoint" />
            <mxPoint x="365" y="376" as="targetPoint" />
          </mxGeometry>
        </mxCell>
        <mxCell id="CI0kX0nGXumtMRh8MRVl-13" value="3rd parties" style="rounded=1;whiteSpace=wrap;html=1;" vertex="1" parent="1">
          <mxGeometry x="80" y="441" width="120" height="60" as="geometry" />
        </mxCell>
        <mxCell id="CI0kX0nGXumtMRh8MRVl-15" value="login" style="ellipse;whiteSpace=wrap;html=1;fillColor=#fff2cc;strokeColor=#d6b656;" vertex="1" parent="1">
          <mxGeometry x="355" y="100" width="90" height="60" as="geometry" />
        </mxCell>
        <mxCell id="CI0kX0nGXumtMRh8MRVl-16" value="&lt;div&gt;logout&lt;/div&gt;" style="ellipse;whiteSpace=wrap;html=1;fillColor=#fff2cc;strokeColor=#d6b656;" vertex="1" parent="1">
          <mxGeometry x="355" y="170" width="90" height="60" as="geometry" />
        </mxCell>
        <mxCell id="CI0kX0nGXumtMRh8MRVl-17" value="" style="endArrow=classic;html=1;rounded=0;entryX=0;entryY=0.5;entryDx=0;entryDy=0;" edge="1" parent="1" target="CI0kX0nGXumtMRh8MRVl-16">
          <mxGeometry width="50" height="50" relative="1" as="geometry">
            <mxPoint x="140" y="240" as="sourcePoint" />
            <mxPoint x="365" y="286" as="targetPoint" />
          </mxGeometry>
        </mxCell>
        <mxCell id="CI0kX0nGXumtMRh8MRVl-18" value="" style="endArrow=classic;html=1;rounded=0;entryX=0;entryY=0.5;entryDx=0;entryDy=0;" edge="1" parent="1" target="CI0kX0nGXumtMRh8MRVl-15">
          <mxGeometry width="50" height="50" relative="1" as="geometry">
            <mxPoint x="140" y="240" as="sourcePoint" />
            <mxPoint x="365" y="210" as="targetPoint" />
          </mxGeometry>
        </mxCell>
        <mxCell id="CI0kX0nGXumtMRh8MRVl-19" value="3rd parties" style="rounded=1;whiteSpace=wrap;html=1;" vertex="1" parent="1">
          <mxGeometry x="600" y="548" width="120" height="60" as="geometry" />
        </mxCell>
        <mxCell id="CI0kX0nGXumtMRh8MRVl-20" value="Identity Providers" style="rounded=1;whiteSpace=wrap;html=1;" vertex="1" parent="1">
          <mxGeometry x="600" y="100" width="120" height="60" as="geometry" />
        </mxCell>
        <mxCell id="CI0kX0nGXumtMRh8MRVl-21" value="" style="endArrow=classic;html=1;rounded=0;entryX=0;entryY=0.5;entryDx=0;entryDy=0;exitX=1;exitY=0.5;exitDx=0;exitDy=0;" edge="1" parent="1" source="CI0kX0nGXumtMRh8MRVl-15" target="CI0kX0nGXumtMRh8MRVl-20">
          <mxGeometry width="50" height="50" relative="1" as="geometry">
            <mxPoint x="150" y="250" as="sourcePoint" />
            <mxPoint x="365" y="140" as="targetPoint" />
          </mxGeometry>
        </mxCell>
        <mxCell id="CI0kX0nGXumtMRh8MRVl-22" value="" style="endArrow=classic;html=1;rounded=0;entryX=0;entryY=0.5;entryDx=0;entryDy=0;exitX=1;exitY=0.5;exitDx=0;exitDy=0;" edge="1" parent="1" source="CI0kX0nGXumtMRh8MRVl-8" target="CI0kX0nGXumtMRh8MRVl-19">
          <mxGeometry width="50" height="50" relative="1" as="geometry">
            <mxPoint x="455" y="140" as="sourcePoint" />
            <mxPoint x="610" y="140" as="targetPoint" />
          </mxGeometry>
        </mxCell>
        <mxCell id="CI0kX0nGXumtMRh8MRVl-23" value="" style="endArrow=classic;html=1;rounded=0;entryX=0;entryY=0.5;entryDx=0;entryDy=0;exitX=1;exitY=0.5;exitDx=0;exitDy=0;" edge="1" parent="1" source="CI0kX0nGXumtMRh8MRVl-13" target="CI0kX0nGXumtMRh8MRVl-7">
          <mxGeometry width="50" height="50" relative="1" as="geometry">
            <mxPoint x="140" y="286" as="sourcePoint" />
            <mxPoint x="365" y="481" as="targetPoint" />
          </mxGeometry>
        </mxCell>
        <mxCell id="CI0kX0nGXumtMRh8MRVl-24" value="auto&lt;br&gt;trigger" style="ellipse;whiteSpace=wrap;html=1;fillColor=#fff2cc;strokeColor=#d6b656;" vertex="1" parent="1">
          <mxGeometry x="355" y="655" width="90" height="60" as="geometry" />
        </mxCell>
        <mxCell id="CI0kX0nGXumtMRh8MRVl-26" value="" style="endArrow=open;dashed=1;html=1;dashPattern=1 3;strokeWidth=2;rounded=0;exitX=0.5;exitY=0;exitDx=0;exitDy=0;endFill=0;" edge="1" parent="1" source="CI0kX0nGXumtMRh8MRVl-24">
          <mxGeometry width="50" height="50" relative="1" as="geometry">
            <mxPoint x="410" y="511" as="sourcePoint" />
            <mxPoint x="400" y="610" as="targetPoint" />
          </mxGeometry>
        </mxCell>
      </root>
    </mxGraphModel>
  </diagram>
</mxfile>
